<?xml version="1.0" encoding="UTF-8" standalone="no"?>
<!-- Created with Inkscape (http://www.inkscape.org/) -->

<svg
   xmlns:dc="http://purl.org/dc/elements/1.1/"
   xmlns:cc="http://creativecommons.org/ns#"
   xmlns:rdf="http://www.w3.org/1999/02/22-rdf-syntax-ns#"
   xmlns:svg="http://www.w3.org/2000/svg"
   xmlns="http://www.w3.org/2000/svg"
   xmlns:xlink="http://www.w3.org/1999/xlink"
   version="1.1"
   width="100%"
   height="100%"
   viewBox="0 0 640 640"
   id="svg3049">
  <metadata
     id="metadata3073">
    <rdf:RDF>
      <cc:Work
         rdf:about="">
        <dc:format>image/svg+xml</dc:format>
        <dc:type
           rdf:resource="http://purl.org/dc/dcmitype/StillImage" />
        <dc:title></dc:title>
      </cc:Work>
    </rdf:RDF>
  </metadata>
  <defs
     id="defs3051">
    <path
       d="m 545,61.5 4.06,0.33 3.84,0.94 3.59,1.52 3.27,2.03 2.92,2.5 2.5,2.92 2.03,3.27 1.52,3.59 0.94,3.84 0.33,4.06 0,300 -0.33,4.06 -0.94,3.84 -1.52,3.59 -2.03,3.27 -2.5,2.92 -2.92,2.5 -3.27,2.03 -3.59,1.52 -3.84,0.94 -4.06,0.33 -450,0 -4.06,-0.33 -3.84,-0.94 -3.59,-1.52 -3.27,-2.03 -2.92,-2.5 -2.5,-2.92 -2.03,-3.27 -1.52,-3.59 -0.94,-3.84 -0.33,-4.06 0,-300 0.33,-4.06 0.94,-3.84 1.52,-3.59 2.03,-3.27 2.5,-2.92 2.92,-2.5 3.27,-2.03 3.59,-1.52 3.84,-0.94 4.06,-0.33 112.5,0 25,-62.5 175,0 25,62.5 112.5,0 z m -265.47,56.49 -17.81,7.57 -16.26,10.13 -14.47,12.42 -12.43,14.47 -10.12,16.26 -7.58,17.81 -4.77,19.09 -1.71,20.13 1.53,20.29 4.64,19.25 7.49,17.98 10.08,16.43 12.43,14.62 14.5,12.57 16.33,10.25 17.89,7.67 19.21,4.83 20.27,1.74 20.28,-1.54 19.26,-4.64 17.97,-7.49 16.43,-10.08 14.63,-12.42 12.57,-14.5 10.24,-16.33 7.67,-17.9 4.84,-19.21 1.73,-20.27 -1.53,-20.28 -4.65,-19.26 -7.52,-17.97 -10.12,-16.43 -12.5,-14.63 -14.62,-12.56 -16.48,-10.25 -18.11,-7.67 -19.48,-4.83 -20.61,-1.74 -20.13,1.71 -19.09,4.78 z"
       id="fokAaQ0Gw" />
    <path
       d="m 370,525.21 50,-100 -100.01,0 -99.99,0 49.99,100 50,100 50.01,-100 z"
       id="b3mD2IlM7x" />
  </defs>
  <g
     id="g3055"
     style="visibility:inherit">
    <g
       id="g3057"
       style="visibility:inherit">
      <g
         transform="matrix(1.0005848,0,0,0.97040583,-0.18713869,17.324001)"
         id="g3059"
         style="fill:#2f2487;fill-opacity:1;stroke:#ff993d;stroke-width:30.44511414;stroke-miterlimit:4;stroke-opacity:1;stroke-dasharray:none;visibility:inherit">
        <use
           id="use3061"
           style="fill:#2f2487;fill-opacity:1;stroke:#ff993d;stroke-width:30.44511414;stroke-miterlimit:4;stroke-opacity:1;stroke-dasharray:none"
           x="0"
           y="0"
           width="640"
           height="640"
           xlink:href="#fokAaQ0Gw" />
        <g
           id="g3063"
           style="fill:#2f2487;fill-opacity:1;stroke:#ff993d;stroke-width:30.44511414;stroke-miterlimit:4;stroke-opacity:1;stroke-dasharray:none">
          <use
             id="use3065"
             style="fill:#2f2487;fill-opacity:1;stroke:#ff993d;stroke-width:30.44511414;stroke-miterlimit:4;stroke-opacity:1;stroke-dasharray:none"
             x="0"
             y="0"
             width="640"
             height="640"
             xlink:href="#fokAaQ0Gw" />
        </g>
      </g>
      <g
         transform="matrix(1.0081612,0,0,0.80251529,-2.6119938,122.57594)"
         id="g3067"
         style="fill:#2f2487;fill-opacity:1;stroke:#ff993d;stroke-width:32.79331589;stroke-miterlimit:4;stroke-opacity:1;stroke-dasharray:none;visibility:inherit">
        <use
           id="use3069"
           style="fill:#2f2487;fill-opacity:1;stroke:#ff993d;stroke-width:32.79331589;stroke-linejoin:round;stroke-miterlimit:4;stroke-opacity:1;stroke-dasharray:none"
           x="0"
           y="0"
           width="640"
           height="640"
           xlink:href="#b3mD2IlM7x" />
      </g>
    </g>
  </g>
</svg>
